<svg width="24" height="17" viewBox="0 0 24 17" fill="none" xmlns="http://www.w3.org/2000/svg">
<rect width="24" height="17" fill="#F5F5F5"/>
<g id="Homepage">
<rect width="1920" height="6275" transform="translate(-240 -17)" fill="white"/>
<g id="Group 14">
<path id="Vector" d="M21.8868 2.4057C21.8427 2.34646 21.7872 2.29651 21.7237 2.2587C21.6602 2.22089 21.5899 2.19596 21.5168 2.18534C21.4437 2.17472 21.3691 2.17861 21.2975 2.1968C21.2259 2.21498 21.1585 2.24711 21.0993 2.29133L12.0262 9.06383C11.9938 9.08817 11.9543 9.10133 11.9137 9.10133C11.8731 9.10133 11.8337 9.08817 11.8012 9.06383L2.90621 2.26133C2.84749 2.21651 2.78051 2.18371 2.7091 2.16478C2.6377 2.14585 2.56326 2.14117 2.49005 2.15101C2.41684 2.16084 2.34628 2.185 2.2824 2.22211C2.21853 2.25922 2.16259 2.30854 2.11777 2.36727C2.07296 2.42599 2.04015 2.49297 2.02122 2.56437C2.00229 2.63578 1.99761 2.71021 2.00745 2.78342C2.01729 2.85664 2.04145 2.9272 2.07856 2.99107C2.11566 3.05495 2.16499 3.11089 2.22371 3.1557L9.21746 8.50508L2.30059 13.7176C2.241 13.762 2.19075 13.8178 2.15271 13.8816C2.11466 13.9455 2.08957 14.0162 2.07886 14.0898C2.06815 14.1634 2.07204 14.2383 2.0903 14.3104C2.10856 14.3824 2.14083 14.4502 2.18527 14.5098C2.22972 14.5694 2.28546 14.6196 2.34933 14.6576C2.41319 14.6957 2.48392 14.7208 2.55749 14.7315C2.63105 14.7422 2.706 14.7383 2.77806 14.7201C2.85012 14.7018 2.91787 14.6695 2.97746 14.6251L10.1456 9.21383L11.1168 9.96383C11.3433 10.1372 11.6201 10.232 11.9053 10.2341C12.1905 10.2361 12.4685 10.1452 12.6975 9.97508L13.7175 9.21383L20.97 14.6251C21.0292 14.6693 21.0965 14.7014 21.1681 14.7195C21.2398 14.7377 21.3143 14.7416 21.3874 14.731C21.4605 14.7204 21.5308 14.6954 21.5943 14.6577C21.6578 14.6199 21.7133 14.5699 21.7575 14.5107C21.8017 14.4515 21.8338 14.3841 21.8519 14.3125C21.8701 14.2409 21.874 14.1664 21.8634 14.0933C21.8527 14.0201 21.8278 13.9498 21.79 13.8863C21.7522 13.8228 21.7023 13.7674 21.6431 13.7232L14.6568 8.5032L21.7725 3.18758C21.8905 3.09846 21.9687 2.96644 21.9901 2.82011C22.0115 2.67377 21.9744 2.5249 21.8868 2.4057Z" fill="#262626"/>
<path id="Vector_2" d="M21.1875 0H2.8125C2.06658 0 1.35121 0.296316 0.823762 0.823762C0.296316 1.35121 0 2.06658 0 2.8125L0 14.0625C0 14.8084 0.296316 15.5238 0.823762 16.0512C1.35121 16.5787 2.06658 16.875 2.8125 16.875H21.1875C21.9334 16.875 22.6488 16.5787 23.1762 16.0512C23.7037 15.5238 24 14.8084 24 14.0625V2.8125C24 2.06658 23.7037 1.35121 23.1762 0.823762C22.6488 0.296316 21.9334 0 21.1875 0ZM22.875 14.0625C22.875 14.5101 22.6972 14.9393 22.3807 15.2557C22.0643 15.5722 21.6351 15.75 21.1875 15.75H2.8125C2.36495 15.75 1.93572 15.5722 1.61926 15.2557C1.30279 14.9393 1.125 14.5101 1.125 14.0625V2.8125C1.125 2.36495 1.30279 1.93573 1.61926 1.61926C1.93572 1.30279 2.36495 1.125 2.8125 1.125H21.1875C21.6351 1.125 22.0643 1.30279 22.3807 1.61926C22.6972 1.93573 22.875 2.36495 22.875 2.8125V14.0625Z" fill="#262626"/>
</g>
</g>
</svg>
