<svg width="18" height="19" viewBox="0 0 18 19" fill="none" xmlns="http://www.w3.org/2000/svg">
<rect width="18" height="19" fill="#F5F5F5"/>
<g id="Homepage">
<rect width="1920" height="6275" transform="translate(-1582 -15)" fill="white"/>
<g id="Layer_1">
<g id="Group">
<path id="Vector" d="M6.12315 14.5191H3.96558V7.32715H6.12315V14.5191ZM14.0343 14.5191H11.8767V10.6771C11.8767 9.67603 11.52 9.17763 10.813 9.17763C10.2528 9.17763 9.89747 9.45668 9.71911 10.0155C9.71911 10.9231 9.71911 14.5191 9.71911 14.5191H7.56154C7.56154 14.5191 7.5903 8.04634 7.56154 7.32715H9.26458L9.39619 8.76553H9.44078C9.88309 8.04634 10.5901 7.55873 11.5595 7.55873C12.2967 7.55873 12.8929 7.7637 13.3482 8.27864C13.8063 8.7943 14.0343 9.48616 14.0343 10.4578V14.5191Z" fill="#0133A3"/>
</g>
<g id="Group_2">
<path id="Vector_2" d="M5.04444 6.60802C5.66009 6.60802 6.15918 6.12503 6.15918 5.52923C6.15918 4.93343 5.66009 4.45044 5.04444 4.45044C4.42878 4.45044 3.92969 4.93343 3.92969 5.52923C3.92969 6.12503 4.42878 6.60802 5.04444 6.60802Z" fill="#0133A3"/>
</g>
</g>
<circle id="Ellipse 22" cx="8.99998" cy="9.48485" r="12.9848" stroke="#0133A3"/>
</g>
</svg>
