<svg width="24" height="24" viewBox="0 0 24 24" fill="none" xmlns="http://www.w3.org/2000/svg">
<rect width="24" height="24" fill="#F5F5F5"/>
<g id="Homepage">
<rect width="1920" height="6275" transform="translate(-447 -13)" fill="white"/>
<g id="1">
<path id="Vector" d="M17.5886 24C16.6547 23.9931 15.725 23.8759 14.8187 23.6508C11.6888 22.8956 8.46584 20.98 5.7449 18.2567C3.02396 15.5334 1.10594 12.3098 0.350783 9.18298C-0.444366 5.89375 0.122745 3.0797 1.94586 1.2566L2.4664 0.736059C2.93869 0.264717 3.57869 0 4.24594 0C4.91319 0 5.55318 0.264717 6.02547 0.736059L9.01683 3.7268C9.48847 4.19894 9.75339 4.83898 9.75339 5.50633C9.75339 6.17367 9.48847 6.81372 9.01683 7.28585L7.24983 9.05224C8.09692 10.5387 9.24905 12.0263 10.6107 13.3879C11.9724 14.7496 13.4612 15.9023 14.947 16.7494L16.7134 14.9824C16.9471 14.7486 17.2245 14.5632 17.5298 14.4367C17.8352 14.3102 18.1624 14.2451 18.493 14.2451C18.8235 14.2451 19.1507 14.3102 19.4561 14.4367C19.7614 14.5632 20.0388 14.7486 20.2725 14.9824L23.2632 17.9731C23.735 18.4451 24 19.0851 24 19.7524C24 20.4197 23.735 21.0596 23.2632 21.5316L22.7421 22.0521C21.4569 23.3398 19.6779 24 17.5886 24ZM4.24594 1.78968C4.15062 1.78921 4.05618 1.80776 3.96812 1.84426C3.88007 1.88075 3.80019 1.93444 3.73315 2.0022L3.21201 2.52275C1.84676 3.88798 1.44799 6.10448 2.08913 8.76033C2.76787 11.5738 4.51517 14.4971 7.00866 16.99C9.50216 19.4828 12.4249 21.2283 15.2389 21.9095C17.8954 22.5506 20.1107 22.1518 21.476 20.7866L21.9965 20.266C22.1325 20.1299 22.2089 19.9454 22.2089 19.753C22.2089 19.5605 22.1325 19.376 21.9965 19.2399L19.0063 16.2491C18.8702 16.1131 18.6857 16.0367 18.4933 16.0367C18.3008 16.0367 18.1163 16.1131 17.9802 16.2491L15.741 18.4883C15.6066 18.6227 15.433 18.7109 15.2452 18.7401C15.0573 18.7693 14.8651 18.738 14.6963 18.6507C12.8606 17.7015 11.0101 16.3196 9.34456 14.6541C7.67905 12.9886 6.30007 11.1392 5.34852 9.30356C5.26114 9.1348 5.22971 8.94261 5.2588 8.7548C5.28788 8.567 5.37596 8.39332 5.5103 8.25889L7.75009 6.01971C7.88609 5.88359 7.96249 5.69905 7.96249 5.50663C7.96249 5.31421 7.88609 5.12966 7.75009 4.99354L4.75932 2.0022C4.69208 1.93456 4.61207 1.88095 4.52394 1.84447C4.43581 1.80799 4.34132 1.78937 4.24594 1.78968Z" fill="#262626"/>
<path id="Vector_2" d="M18.5448 13.235C18.3073 13.235 18.0795 13.1406 17.9116 12.9727C17.7437 12.8048 17.6494 12.577 17.6494 12.3395C17.6476 10.7687 17.0229 9.26262 15.9121 8.15179C14.8014 7.04096 13.2954 6.41605 11.7245 6.41416C11.4871 6.41416 11.2593 6.31982 11.0914 6.15189C10.9234 5.98396 10.8291 5.75621 10.8291 5.51872C10.8291 5.28124 10.9234 5.05348 11.0914 4.88556C11.2593 4.71763 11.4871 4.62329 11.7245 4.62329C15.9791 4.62329 19.4402 8.08563 19.4402 12.3395C19.4402 12.577 19.3459 12.8048 19.178 12.9727C19.01 13.1406 18.7823 13.235 18.5448 13.235Z" fill="#262626"/>
<path id="Vector_3" d="M22.3295 13.2355C22.092 13.2355 21.8643 13.1411 21.6963 12.9732C21.5284 12.8053 21.4341 12.5775 21.4341 12.3401C21.4341 6.98596 17.0763 2.62998 11.7245 2.62998C11.4871 2.62998 11.2593 2.53564 11.0914 2.36771C10.9234 2.19978 10.8291 1.97203 10.8291 1.73454C10.8291 1.49706 10.9234 1.2693 11.0914 1.10138C11.2593 0.933452 11.4871 0.839111 11.7245 0.839111C18.066 0.839111 23.2249 5.9986 23.2249 12.3401C23.2249 12.5775 23.1306 12.8053 22.9627 12.9732C22.7948 13.1411 22.567 13.2355 22.3295 13.2355Z" fill="#262626"/>
</g>
</g>
</svg>
