<svg width="14" height="13" viewBox="0 0 14 13" fill="none" xmlns="http://www.w3.org/2000/svg">
<rect width="14" height="13" fill="#F5F5F5"/>
<g id="Homepage">
<rect width="1920" height="6275" transform="translate(-1546 -18)" fill="white"/>
<g id="Layer_1">
<path id="Vector" d="M12.8346 3.45223C12.421 3.63605 11.976 3.76004 11.509 3.81553C11.9858 3.5301 12.3514 3.07798 12.5238 2.53863C12.0778 2.80328 11.5842 2.99532 11.0583 3.09899C10.6374 2.65052 10.0376 2.37012 9.37379 2.37012C8.09941 2.37012 7.06616 3.40337 7.06616 4.67798C7.06616 4.8586 7.08648 5.03465 7.12598 5.20385C5.2079 5.10749 3.5072 4.18887 2.36891 2.79255C2.17025 3.13324 2.05654 3.52964 2.05654 3.95299C2.05654 4.75356 2.4639 5.46006 3.08317 5.87381C2.70503 5.86171 2.34904 5.75782 2.03781 5.58496C2.03758 5.59455 2.03758 5.60437 2.03758 5.61419C2.03758 6.73216 2.83313 7.66471 3.88899 7.87707C3.69536 7.92959 3.49144 7.9579 3.28091 7.9579C3.13203 7.9579 2.98749 7.94352 2.8466 7.91634C3.14048 8.83314 3.99266 9.50059 5.00239 9.51908C4.21255 10.1381 3.21766 10.5071 2.13623 10.5071C1.95013 10.5071 1.76631 10.4962 1.58569 10.4747C2.6073 11.1298 3.82026 11.5116 5.12341 11.5116C9.36854 11.5116 11.6896 7.99512 11.6896 4.94537C11.6896 4.84536 11.6876 4.74557 11.6833 4.64647C12.134 4.32177 12.5254 3.91509 12.8346 3.45223Z" fill="#0133A3"/>
</g>
<circle id="Ellipse 21" cx="7.24242" cy="6.48485" r="12.9848" stroke="#0133A3"/>
</g>
</svg>
