<svg width="16" height="13" viewBox="0 0 16 13" fill="none" xmlns="http://www.w3.org/2000/svg">
<rect width="16" height="13" fill="#F5F5F5"/>
<g id="Homepage">
<rect width="1920" height="6275" transform="translate(-1621 -18)" fill="white"/>
<g id="Frame">
<path id="Vector" d="M14.6433 3.14952C14.4844 2.55155 14.0165 2.0806 13.4224 1.92078C12.3456 1.63037 8.02754 1.63037 8.02754 1.63037C8.02754 1.63037 3.70953 1.63037 2.63265 1.92078C2.03855 2.08063 1.57064 2.55155 1.41183 3.14952C1.12329 4.23337 1.12329 6.49473 1.12329 6.49473C1.12329 6.49473 1.12329 8.75608 1.41183 9.83994C1.57064 10.4379 2.03855 10.8892 2.63265 11.049C3.70953 11.3395 8.02754 11.3395 8.02754 11.3395C8.02754 11.3395 12.3456 11.3395 13.4224 11.049C14.0165 10.8892 14.4844 10.4379 14.6433 9.83994C14.9318 8.75608 14.9318 6.49473 14.9318 6.49473C14.9318 6.49473 14.9318 4.23337 14.6433 3.14952ZM6.6153 8.54787V4.44158L10.2243 6.49478L6.6153 8.54787Z" fill="#0133A3"/>
</g>
<circle id="Ellipse 23" cx="7.75755" cy="6.48485" r="12.9848" stroke="#0133A3"/>
</g>
</svg>
